# xmcd CD database file
#
# Track frame offsets:
#	150
#	9620
#	23782
#	38657
#	53452
#	67345
#	73092
#	82562
#	94927
#	108747
#	121865
#	132622
#
# Disc length: 1943 seconds
#
# Revision: 3
# Processed by: cddbd v1.5.1PL2 Copyright (c) Steve Scherf et al.
# Submitted via: CDex 1.70beta2
#
DISCID=9e07950c
DTITLE=Various Artist - Country Gospel Disc 1
DYEAR=1997
DGENRE=Country
TTITLE0=Pat Boone - A Wonderful Time Up There
TTITLE1=J.D. Summer and The Stamps - Who I Am
TTITLE2=The Jordanaires - God Bless The USA
TTITLE3=Ray Price - Farther Along
TTITLE4=Donna Fargo - You Can't Be A Beacon (If Your Light Don't Shine)
TTITLE5=Narvel Felts - Rock of Ages
TTITLE6=Don Gibson - I Need The Every Hour
TTITLE7=Lee Greenwood - You'll Never Walk Olone
TTITLE8=Bobby Helms - What A Friend We Have In Jesus
TTITLE9=David Houston - In The Garden
TTITLE10=Ferlin Husky - Wings Of A Dove
TTITLE11=Jan Howard - Where No One Stands Alone
EXTD=YEAR: 1997
EXTT0=
EXTT1=
EXTT2=
EXTT3=
EXTT4=
EXTT5=
EXTT6=
EXTT7=
EXTT8=
EXTT9=
EXTT10=
EXTT11=
PLAYORDER=
